<mxfile host="app.diagrams.net" modified="2024-05-24T05:53:04.127Z" agent="Mozilla/5.0 (Windows NT 10.0; Win64; x64) AppleWebKit/537.36 (KHTML, like Gecko) Chrome/125.0.0.0 Safari/537.36 Edg/125.0.0.0" etag="Rx7GnnbXO4P69eAPe2YI" version="24.4.6" type="device">
  <diagram name="Page-1" id="yxmPMJKVgFtv1NxnpY30">
    <mxGraphModel dx="1155" dy="633" grid="1" gridSize="10" guides="1" tooltips="1" connect="1" arrows="1" fold="1" page="1" pageScale="1" pageWidth="827" pageHeight="1169" math="0" shadow="0">
      <root>
        <mxCell id="0" />
        <mxCell id="1" parent="0" />
        <mxCell id="5vkjm_qI4Kn7rOGTizYv-14" style="edgeStyle=orthogonalEdgeStyle;rounded=0;orthogonalLoop=1;jettySize=auto;html=1;entryX=0;entryY=0.5;entryDx=0;entryDy=0;" edge="1" parent="1" source="5vkjm_qI4Kn7rOGTizYv-1" target="5vkjm_qI4Kn7rOGTizYv-13">
          <mxGeometry relative="1" as="geometry" />
        </mxCell>
        <mxCell id="5vkjm_qI4Kn7rOGTizYv-15" value="Structure discovery" style="edgeLabel;html=1;align=center;verticalAlign=middle;resizable=0;points=[];" vertex="1" connectable="0" parent="5vkjm_qI4Kn7rOGTizYv-14">
          <mxGeometry x="0.125" y="3" relative="1" as="geometry">
            <mxPoint x="-8" y="-7" as="offset" />
          </mxGeometry>
        </mxCell>
        <mxCell id="5vkjm_qI4Kn7rOGTizYv-1" value="IDLE" style="rounded=0;whiteSpace=wrap;html=1;" vertex="1" parent="1">
          <mxGeometry x="40" y="260" width="120" height="60" as="geometry" />
        </mxCell>
        <mxCell id="5vkjm_qI4Kn7rOGTizYv-9" style="edgeStyle=orthogonalEdgeStyle;rounded=0;orthogonalLoop=1;jettySize=auto;html=1;entryX=0;entryY=0.5;entryDx=0;entryDy=0;" edge="1" parent="1" source="5vkjm_qI4Kn7rOGTizYv-4" target="5vkjm_qI4Kn7rOGTizYv-8">
          <mxGeometry relative="1" as="geometry" />
        </mxCell>
        <mxCell id="5vkjm_qI4Kn7rOGTizYv-10" value="delay" style="edgeLabel;html=1;align=center;verticalAlign=middle;resizable=0;points=[];" vertex="1" connectable="0" parent="5vkjm_qI4Kn7rOGTizYv-9">
          <mxGeometry x="-0.05" y="-2" relative="1" as="geometry">
            <mxPoint x="2" y="-12" as="offset" />
          </mxGeometry>
        </mxCell>
        <mxCell id="5vkjm_qI4Kn7rOGTizYv-21" style="edgeStyle=orthogonalEdgeStyle;rounded=0;orthogonalLoop=1;jettySize=auto;html=1;entryX=0;entryY=0.5;entryDx=0;entryDy=0;" edge="1" parent="1" source="5vkjm_qI4Kn7rOGTizYv-4" target="5vkjm_qI4Kn7rOGTizYv-17">
          <mxGeometry relative="1" as="geometry" />
        </mxCell>
        <mxCell id="5vkjm_qI4Kn7rOGTizYv-4" value="Enable Software UART receivers for connected ports" style="rounded=0;whiteSpace=wrap;html=1;" vertex="1" parent="1">
          <mxGeometry x="440" y="260" width="120" height="60" as="geometry" />
        </mxCell>
        <mxCell id="5vkjm_qI4Kn7rOGTizYv-22" style="edgeStyle=orthogonalEdgeStyle;rounded=0;orthogonalLoop=1;jettySize=auto;html=1;entryX=1;entryY=0.5;entryDx=0;entryDy=0;" edge="1" parent="1" source="5vkjm_qI4Kn7rOGTizYv-23" target="5vkjm_qI4Kn7rOGTizYv-19">
          <mxGeometry relative="1" as="geometry">
            <Array as="points">
              <mxPoint x="780" y="200" />
              <mxPoint x="780" y="380" />
            </Array>
          </mxGeometry>
        </mxCell>
        <mxCell id="5vkjm_qI4Kn7rOGTizYv-8" value="Send module ID with UART through TX pin" style="rounded=0;whiteSpace=wrap;html=1;" vertex="1" parent="1">
          <mxGeometry x="620" y="170" width="120" height="60" as="geometry" />
        </mxCell>
        <mxCell id="5vkjm_qI4Kn7rOGTizYv-16" style="edgeStyle=orthogonalEdgeStyle;rounded=0;orthogonalLoop=1;jettySize=auto;html=1;entryX=0;entryY=0.5;entryDx=0;entryDy=0;" edge="1" parent="1" source="5vkjm_qI4Kn7rOGTizYv-13" target="5vkjm_qI4Kn7rOGTizYv-4">
          <mxGeometry relative="1" as="geometry" />
        </mxCell>
        <mxCell id="5vkjm_qI4Kn7rOGTizYv-13" value="Check which ports are connected" style="rounded=0;whiteSpace=wrap;html=1;" vertex="1" parent="1">
          <mxGeometry x="280" y="260" width="120" height="60" as="geometry" />
        </mxCell>
        <mxCell id="5vkjm_qI4Kn7rOGTizYv-17" value="Receive the module IDs of the neighbor modules" style="rounded=0;whiteSpace=wrap;html=1;" vertex="1" parent="1">
          <mxGeometry x="620" y="260" width="120" height="60" as="geometry" />
        </mxCell>
        <mxCell id="5vkjm_qI4Kn7rOGTizYv-26" style="edgeStyle=orthogonalEdgeStyle;rounded=0;orthogonalLoop=1;jettySize=auto;html=1;entryX=0.5;entryY=1;entryDx=0;entryDy=0;" edge="1" parent="1" source="5vkjm_qI4Kn7rOGTizYv-19" target="5vkjm_qI4Kn7rOGTizYv-1">
          <mxGeometry relative="1" as="geometry" />
        </mxCell>
        <mxCell id="5vkjm_qI4Kn7rOGTizYv-19" value="Send neighbors ID list and module attributes" style="rounded=0;whiteSpace=wrap;html=1;" vertex="1" parent="1">
          <mxGeometry x="620" y="360" width="120" height="60" as="geometry" />
        </mxCell>
        <mxCell id="5vkjm_qI4Kn7rOGTizYv-24" value="" style="edgeStyle=orthogonalEdgeStyle;rounded=0;orthogonalLoop=1;jettySize=auto;html=1;entryDx=0;entryDy=0;startArrow=none;startFill=0;endArrow=none;endFill=0;" edge="1" parent="1" source="5vkjm_qI4Kn7rOGTizYv-8" target="5vkjm_qI4Kn7rOGTizYv-23">
          <mxGeometry relative="1" as="geometry">
            <mxPoint x="740" y="200" as="sourcePoint" />
            <mxPoint x="740" y="380" as="targetPoint" />
            <Array as="points" />
          </mxGeometry>
        </mxCell>
        <mxCell id="5vkjm_qI4Kn7rOGTizYv-23" value="" style="shape=waypoint;sketch=0;fillStyle=solid;size=6;pointerEvents=1;points=[];fillColor=none;resizable=0;rotatable=0;perimeter=centerPerimeter;snapToPoint=1;" vertex="1" parent="1">
          <mxGeometry x="770" y="280" width="20" height="20" as="geometry" />
        </mxCell>
        <mxCell id="5vkjm_qI4Kn7rOGTizYv-25" style="edgeStyle=orthogonalEdgeStyle;rounded=0;orthogonalLoop=1;jettySize=auto;html=1;entryX=0.45;entryY=0.55;entryDx=0;entryDy=0;entryPerimeter=0;startArrow=none;startFill=0;endArrow=none;endFill=0;" edge="1" parent="1" source="5vkjm_qI4Kn7rOGTizYv-17" target="5vkjm_qI4Kn7rOGTizYv-23">
          <mxGeometry relative="1" as="geometry" />
        </mxCell>
      </root>
    </mxGraphModel>
  </diagram>
</mxfile>
